<?xml version="1.0" encoding="UTF-8" standalone="no"?>
<!-- Created with Inkscape (http://www.inkscape.org/) -->

<svg
   width="119.2434mm"
   height="119.2434mm"
   viewBox="0 0 119.2434 119.2434"
   version="1.1"
   id="svg1"
   xml:space="preserve"
   inkscape:version="1.4.2 (f4327f4, 2025-05-13)"
   sodipodi:docname="viking-treble-clef-vector.svg"
   inkscape:export-filename="viking-treble-clef-vector.png"
   inkscape:export-xdpi="10.650485"
   inkscape:export-ydpi="10.650485"
   xmlns:inkscape="http://www.inkscape.org/namespaces/inkscape"
   xmlns:sodipodi="http://sodipodi.sourceforge.net/DTD/sodipodi-0.dtd"
   xmlns="http://www.w3.org/2000/svg"
   xmlns:svg="http://www.w3.org/2000/svg"><sodipodi:namedview
     id="namedview1"
     pagecolor="#505050"
     bordercolor="#ffffff"
     borderopacity="1"
     inkscape:showpageshadow="0"
     inkscape:pageopacity="0"
     inkscape:pagecheckerboard="1"
     inkscape:deskcolor="#505050"
     inkscape:document-units="mm"
     inkscape:zoom="0.38083965"
     inkscape:cx="1236.741"
     inkscape:cy="644.62826"
     inkscape:window-width="1920"
     inkscape:window-height="1057"
     inkscape:window-x="-8"
     inkscape:window-y="-8"
     inkscape:window-maximized="1"
     inkscape:current-layer="layer2" /><defs
     id="defs1" /><g
     inkscape:groupmode="layer"
     id="layer2"
     inkscape:label="Layer 2"
     style="display:inline;opacity:1"
     transform="translate(-1.4936333,-3.9130555)"><circle
       style="display:inline;fill:#f7ead7;fill-opacity:1;stroke:none;stroke-width:1.01328;stroke-linecap:round;stroke-linejoin:round;stroke-dasharray:none;stroke-opacity:1"
       id="path1754"
       cx="61.115334"
       cy="63.534756"
       r="59.5" /></g><g
     inkscape:label="Layer 1"
     inkscape:groupmode="layer"
     id="layer1"
     transform="translate(-1.4936333,-3.9130554)"><path
       style="fill:#06042c;fill-opacity:1"
       d="m 58.112819,110.76409 c -4.50256,-0.2867 -6.98141,-0.92733 -13.71601,-3.54471 -9.76571,-3.79541 -13.08343,-4.25086 -21.92866,-3.01034 -0.65194,0.0914 -1.84468,0.21253 -2.65055,0.26909 l -1.46522,0.10285 -0.3475,-0.34749 -0.34749,-0.34749 0.28871,-0.0448 c 0.15879,-0.0246 0.89831,-0.0834 1.64338,-0.13055 0.74507,-0.0472 2.28812,-0.19924 3.429,-0.33796 6.99472,-0.85046 9.77504,-0.79308 13.9326,0.28754 2.06515,0.53678 3.73986,1.11549 6.30273,2.17799 10.99617,4.55874 16.60225,5.1987 26.07734,2.97688 3.33567,-0.78219 3.905267,-0.96266 10.36223,-3.28321 8.185567,-2.94178 9.723507,-3.11076 18.212769,-2.00112 1.860504,0.24319 3.270062,0.34224 4.901792,0.34445 l 1.44821,0.002 -0.41106,0.39209 -0.41105,0.39209 -1.91728,-0.0523 c -1.0545,-0.0288 -2.355428,-0.11126 -2.890945,-0.18328 -8.72588,-1.17354 -10.585336,-0.95425 -19.665037,2.31916 -8.773159,3.1629 -15.110039,4.38456 -20.847959,4.01919 z m 0.59266,-2.71265 c -5.19077,-0.4088 -6.66938,-0.8101 -14.94367,-4.05575 -3.60871,-1.41554 -6.18513,-1.9783 -9.89092,-2.16045 -2.90411,-0.14275 -6.43285,0.0814 -10.79808,0.68602 -0.9845,0.13635 -2.75271,0.35213 -3.92936,0.47951 l -2.13936,0.2316 -0.30747,-0.30748 -0.30748,-0.30747 0.37251,-0.0512 c 17.39374,-2.39309 20.03101,-2.22119 30.8525,2.01103 5.60616,2.19253 8.22921,2.76738 12.62764,2.76738 3.79998,0 5.86019,-0.4349 11.629359,-2.4549 11.051399,-3.86951 15.898059,-4.45064 25.696333,-3.08109 2.156096,0.30137 5.655489,0.68685 6.886779,0.75863 l 1.04478,0.0609 -0.37605,0.37605 -0.37604,0.37605 -1.7694,-0.18295 c -0.97317,-0.10062 -2.7981,-0.31203 -4.055402,-0.46981 -5.013332,-0.6291 -5.564599,-0.67002 -9.059333,-0.67238 -3.286682,-0.002 -3.862032,0.0344 -6.053667,0.38507 -2.837455,0.45404 -3.81589,0.73864 -10.964864,3.18937 -5.440785,1.86515 -10.406905,2.71583 -14.138805,2.42192 z m 0.889,-2.88031 c -4.15257,-0.227 -7.29279,-0.84702 -11.684,-2.30694 -6.55568,-2.17953 -7.64418,-2.46123 -11.67394,-3.021207 -2.1864,-0.30382 -5.39075,-0.372507 -7.72577,-0.165606 -1.51676,0.134397 -7.07533,0.794713 -8.24396,0.979323 -2.46468,0.38934 -5.33443,0.44279 -5.63989,0.10505 -0.48456,-0.53579 -0.54248,-0.50552 0.88425,-0.46216 1.8064,0.0549 4.10221,-0.16091 7.88831,-0.741535 7.61024,-1.167081 11.94938,-1.036237 18.49911,0.557825 1.2202,0.29697 3.89099,1.11176 5.67322,1.73076 9.90333,3.43957 15.45509,3.51892 25.315339,0.36185 4.167242,-1.33428 5.256045,-1.66142 6.858,-2.06056 1.48886,-0.370958 1.99951,-0.480856 3.556,-0.76529 3.569571,-0.652306 6.827103,-0.640859 12.043833,0.04232 0.547159,0.07166 1.442509,0.189145 1.989667,0.261087 3.498322,0.459973 7.397102,0.654613 9.379232,0.468253 1.26909,-0.11932 1.21716,-0.14178 0.80014,0.34609 l -0.33235,0.38882 -0.97915,0.10547 c -1.60554,0.17295 -4.07035,0.0718 -6.899372,-0.28302 -3.69667,-0.46369 -5.940809,-0.717347 -7.196667,-0.813453 -5.33794,-0.408492 -9.918163,0.169493 -15.351011,1.937173 -9.146421,2.97595 -12.350321,3.59873 -17.160991,3.33575 z m -0.97366,-2.45175 c -4.05522,-0.40697 -5.36535,-0.7393 -11.13367,-2.824118 -8.92201,-3.224647 -14.19368,-3.683293 -23.876,-2.077264 -4.01088,0.665293 -4.12301,0.677267 -6.35,0.678101 -3.19407,0.0012 -4.88301,-0.383158 -5.59046,-1.27223 -0.52976,-0.665748 -0.5325,-0.658818 0.15062,-0.380986 2.64826,1.077077 5.23016,1.104559 11.6205,0.123686 10.59286,-1.62593 16.39664,-1.05039 25.33169,2.512052 7.85039,3.129979 14.22443,3.266529 22.374212,0.479294 6.824991,-2.334153 9.274008,-2.982749 13.000104,-3.442938 4.610483,-0.569414 7.752611,-0.472814 13.462,0.413872 4.149465,0.644425 7.250855,0.80186 9.143995,0.464173 1.80534,-0.322024 3.26015,-0.725486 4.00517,-1.110751 0.30153,-0.155927 0.24946,-0.04562 -0.31187,0.660669 -1.23613,1.555362 -5.89539,1.910535 -12.075295,0.920493 -10.580126,-1.694974 -14.452632,-1.286798 -26.754667,2.820037 -5.561939,1.85677 -9.162009,2.42073 -12.996329,2.03591 z m 0.93133,-1.78182 c -3.25627,-0.27501 -4.99187,-0.7212 -9.398,-2.416068 -4.30584,-1.656288 -4.90011,-1.864006 -6.477,-2.263966 -3.42234,-0.868033 -6.3184,-1.160456 -12.40367,-1.252431 -2.22811,-0.03368 -3.53818,-0.08146 -3.25967,-0.118891 1.76251,-0.236882 5.42896,-0.544997 7.47184,-0.627905 0.77999,-0.03166 1.41605,-0.08151 1.41346,-0.110779 -0.005,-0.05178 -1.56884,-1.095595 -3.88996,-2.595742 -9.41563,-6.085347 -14.08019,-16.57975 -11.17545,-25.142708 2.69047,-7.931306 10.03514,-14.12584 20.11375,-16.964047 2.0749,-0.584309 3.10786,-0.953837 4.20655,-1.504851 0.9764,-0.489687 1.0116,-0.527083 0.55796,-0.592851 -4.42412,-0.641413 -6.67158,-2.762079 -7.48071,-7.058693 -1.87035,-9.931795 6.93754,-18.404001 17.55948,-16.89026 0.76557,0.109102 2.81709,0.590961 3.25002,0.763362 0.14751,0.05874 0.20448,-11.106054 0.0574,-11.253009 -0.0659,-0.06581 -1.89547,0.316536 -2.98805,0.624442 -8.03723,2.265016 -16.98232,11.143846 -18.93603,18.795761 -0.60805,2.381493 -0.76138,5.412184 -0.38754,7.659876 0.15241,0.916396 0.1234,0.994476 -0.10544,0.283778 -2.54514,-7.904231 -0.66935,-14.241118 6.72603,-22.722233 0.69283,-0.794539 1.43434,-1.651789 1.6478,-1.905 0.69848,-0.828545 2.35535,-3.219981 3.44965,-4.979053 0.59536,-0.9570309 1.14827,-1.7545547 1.24223,-1.791815 0.55939,-0.2218176 12.21519,-2.6139847 12.76351,-2.6195054 l 0.23283,-0.00234 7.3e-4,9.2921664 c 4.1e-4,5.110692 0.0246,9.490409 0.0537,9.732704 l 0.0529,0.440536 1.02585,0.561745 c 4.30643,2.358174 8.011177,6.855255 9.272669,11.255827 1.883352,6.569864 0.86963,11.406304 -3.460796,16.511356 -0.355507,0.4191 -0.739599,0.889108 -0.853538,1.044463 l -0.207165,0.282463 0.0258,2.759873 c 0.0306,3.282985 -0.14961,2.898201 1.35761,2.898201 6.797346,0 12.240793,3.82641 14.752313,10.369975 1.996033,5.200503 1.281062,13.890394 -1.300337,15.804527 -6.254234,4.637577 -21.388466,4.223677 -31.579976,-0.863668 -7.55861,-3.773065 -11.04858,-12.930445 -8.61368,-22.601501 l 0.41568,-1.651 0.004,1.579733 c 0.0109,4.153019 0.78271,6.911712 2.93872,10.504211 3.31186,5.518448 12.03746,12.173341 19.07877,14.551101 1.44225,0.487029 1.31655,0.597125 1.28919,-1.129128 -0.0315,-1.98544 0.0902,-1.771161 -1.13831,-2.005611 -5.58062,-1.065047 -9.38588,-5.67559 -9.87476,-11.964472 -0.44404,-5.71198 3.40237,-10.416534 9.91548,-12.127672 l 1.03607,-0.272199 V 49.042893 36.859578 l -0.19447,-0.550333 c -0.65887,-1.864604 -1.70234,-3.431294 -3.21226,-4.822956 l -0.65727,-0.605794 -0.0522,4.005542 c -0.0523,4.013843 -0.066,4.260566 -0.29569,5.360208 -0.92979,4.450418 -3.23349,6.950882 -10.79595,11.718032 -7.65953,4.828345 -10.33116,9.679532 -10.35584,18.804302 -0.0182,6.725104 1.81794,11.491558 5.32748,13.829746 0.32547,0.21684 0.56875,0.394254 0.54063,0.394254 -0.11868,0 -4.31549,-1.993951 -4.85773,-2.307959 -6.24842,-3.618477 -8.92805,-9.233095 -8.34758,-17.490687 0.25421,-3.616428 1.8959,-7.79631 4.06219,-10.342688 1.28442,-1.509783 1.29847,-1.79523 0.0365,-0.740833 -4.71135,3.936275 -7.23391,12.552813 -5.55846,18.9865 1.5755,6.049836 6.74974,10.554914 15.94574,13.88353 8.19975,2.968013 14.69471,4.272966 21.293665,4.278282 2.369199,0.0019 2.608099,0.0582 1.27,0.299229 -0.5588,0.100657 -1.677842,0.303888 -2.486755,0.451624 -0.80892,0.147735 -2.48532,0.440737 -3.72534,0.651114 -1.24001,0.210377 -2.92132,0.512573 -3.73624,0.671546 -0.81491,0.158974 -2.19747,0.406471 -3.07235,0.549993 -0.87488,0.143523 -2.30363,0.390715 -3.175,0.549315 -0.87137,0.158601 -2.55587,0.445177 -3.74332,0.636838 -1.18745,0.19166 -2.24549,0.39111 -2.3512,0.443222 -0.16063,0.07918 -0.45971,0.0083 -1.82034,-0.431523 -3.30872,-1.069505 -6.58,-1.476411 -7.93579,-0.987113 l -0.46567,0.168057 1.30842,0.06065 c 1.5541,0.07204 2.86661,0.250913 4.02558,0.548633 0.46567,0.119621 0.98002,0.247739 1.143,0.284706 0.44309,0.100499 2.29734,0.691135 3.25967,1.038308 8.65776,3.123383 11.74462,3.425162 17.93237,1.753116 0.52156,-0.140937 1.46265,-0.392662 2.0913,-0.559389 0.628649,-0.166728 1.771649,-0.486641 2.539999,-0.710919 5.046038,-1.472916 8.415739,-2.100273 11.45636,-2.132898 1.541603,-0.01654 1.586416,-0.02189 1.397,-0.16664 -1.108116,-0.846833 -6.526642,-0.276806 -10.976583,1.154733 -10.124336,3.256984 -13.897936,3.488061 -20.672776,1.265904 -1.04775,-0.343663 -2.1717,-0.737852 -2.49767,-0.875975 l -0.59267,-0.251134 0.42334,0.01116 c 0.63654,0.01678 5.72502,-0.72874 8.80533,-1.290086 0.51224,-0.09335 1.67429,-0.305912 2.58234,-0.472365 0.90805,-0.166452 2.39395,-0.431631 3.302,-0.589285 0.90805,-0.157654 2.06057,-0.364417 2.56116,-0.459472 2.818353,-0.535166 6.865395,-1.282189 8.302417,-1.5325 8.179863,-1.424832 14.766803,-4.566874 19.286059,-9.199662 5.553065,-5.692573 5.485515,-11.130942 -0.220648,-17.761667 -1.665053,-1.934841 -2.032101,-3.578109 -1.193603,-5.343748 2.324592,-4.89493 10.057646,-1.684158 8.222696,3.414075 -1.43041,3.974287 -7.519145,2.539987 -7.036916,-1.657661 0.272018,-2.367832 3.604536,-3.169855 4.643998,-1.117651 0.780738,1.541418 -0.958913,3.445152 -2.30721,2.524819 -0.819,-0.559041 -0.81434,-2.264834 0.0062,-2.264834 0.272532,0 0.331115,0.164166 0.120855,0.338667 -0.169729,0.140862 -0.166639,0.837063 0.0048,1.081828 0.523541,0.747459 1.660868,-0.475563 1.199588,-1.289973 -0.93379,-1.648647 -3.154267,-0.879405 -3.150098,1.091291 0.0069,3.243904 4.553293,4.179716 5.992773,1.233521 1.38342,-2.831455 -1.49227,-5.960638 -4.708032,-5.123039 -3.321213,0.865066 -3.624962,4.245902 -0.684677,7.620705 4.463909,5.123596 5.710529,10.091698 4.429569,17.653001 -1.007565,5.947475 -2.590317,8.837596 -6.409807,11.704373 -1.398993,1.050035 -1.185011,1.007128 -4.987777,1.000126 -6.164762,-0.01135 -9.652444,0.574026 -14.715674,2.469897 -7.372873,2.760689 -11.031433,3.552699 -14.901333,3.225869 z M 73.945481,89.52965 c 4.127033,-0.727598 7.593021,-4.726666 8.09173,-9.336261 0.624306,-5.770498 -2.713875,-10.470644 -8.330477,-11.729278 -0.878307,-0.196821 -3.755399,-0.291321 -3.917963,-0.128688 -0.0736,0.07363 -0.06177,9.724818 0.02026,16.545976 l 0.05518,4.58777 0.558967,0.05226 c 0.307432,0.02874 0.635167,0.06408 0.7283,0.07853 0.493996,0.07665 2.204588,0.0336 2.794,-0.07031 z m -6.035392,-6.209188 c 0.0163,-0.08149 0.0284,-3.386666 0.0269,-7.344833 l -0.003,-7.196667 -0.21167,0.02562 c -6.28148,0.760252 -9.26288,9.017258 -4.59521,12.726481 1.65428,1.314602 4.65315,2.436571 4.78282,1.789401 z M 49.361629,45.742585 c 5.40816,-1.024121 11.11444,-8.35318 11.30999,-14.526396 l 0.0474,-1.494772 -0.20457,-0.204564 c -1.61841,-1.618411 -9.31723,-1.156421 -13.24223,0.794639 -8.96964,4.458667 -7.24457,17.198638 2.08946,15.431093 z m 0.49618,49.875711 c 0,-0.02328 0.019,-0.04233 0.0423,-0.04233 0.0233,0 0.0423,0.01905 0.0423,0.04233 0,0.02328 -0.019,0.04233 -0.0423,0.04233 -0.0233,0 -0.0423,-0.01905 -0.0423,-0.04233 z M 104.51631,79.700912 c 0.0319,-0.09313 0.32301,-0.874183 0.64694,-1.735667 3.70641,-9.856934 3.61401,-15.885722 -0.32396,-21.138233 -0.6327,-0.843905 -0.30965,-0.601249 0.46937,0.352566 2.97994,3.648548 3.9649,7.975418 2.84283,12.488334 -0.55022,2.212947 -1.76551,5.833693 -2.72814,8.128 -0.47974,1.143411 -1.07257,2.388488 -0.90704,1.905 z m -2.37671,-4.445 c 0.34006,-2.398858 0.20813,-6.313289 -0.2577,-7.646609 -0.26775,-0.766338 -0.26169,-0.789324 0.0601,-0.228178 1.26154,2.200152 1.4033,5.624285 0.32601,7.874787 l -0.18238,0.381 z m 1.98955,-0.706412 c 0,-0.01599 0.0731,-0.241428 0.16235,-0.500966 0.15069,-0.437979 0.30026,-1.142704 0.65124,-3.068289 0.34057,-1.868531 0.23692,-6.61193 -0.17927,-8.203549 -0.17954,-0.68661 -0.10672,-0.682257 0.14903,0.0089 1.22658,3.314904 1.21015,7.022947 -0.0455,10.268972 -0.35979,0.930099 -0.73785,1.696068 -0.73785,1.494921 z m 0.42333,-12.459255 c 0,-0.02328 0.019,-0.04233 0.0423,-0.04233 0.0233,0 0.0423,0.01905 0.0423,0.04233 0,0.02328 -0.0191,0.04233 -0.0423,0.04233 -0.0233,0 -0.0423,-0.01905 -0.0423,-0.04233 z"
       id="path1"
       inkscape:transform-center-x="233.43158"
       inkscape:transform-center-y="-6.2526316"
       sodipodi:nodetypes="cscsccccccssssscccccsscccssssccccssssscccssccsccssssssssscssssssscscsssssssssssssssssssscssssscssssscsscssscssscsccscssssccsssssccssccsscccsscscsssscsscssssssssssscscsssssssssssscssssssssssssssssscsssssssccssssscsssscccsscccccssccsssssscssssscscsccscsscssssssss" /></g></svg>
